<svg width="19" height="21" viewBox="0 0 19 21" fill="none" xmlns="http://www.w3.org/2000/svg">
<circle cx="9.87794" cy="6.30373" r="1.056" stroke="#342E34" stroke-width="1.056"/>
<path d="M1.6194 9.31368C1.58177 8.84569 1.76866 8.38764 2.12295 8.07956L8.90825 2.1793C9.46453 1.69558 10.2922 1.69558 10.8484 2.1793L17.6337 8.07956C17.988 8.38764 18.1749 8.84569 18.1373 9.31368L17.563 16.4546C17.5012 17.2227 16.8599 17.8145 16.0894 17.8145H3.66732C2.89677 17.8145 2.25544 17.2227 2.19367 16.4546L1.6194 9.31368Z" stroke="#342E34" stroke-width="1.2672"/>
<line x1="4.80157" y1="17.8934" x2="4.80157" y2="19.9257" stroke="#342E34" stroke-width="1.2672" stroke-linecap="round"/>
<line x1="14.6063" y1="17.8934" x2="14.6063" y2="19.9257" stroke="#342E34" stroke-width="1.2672" stroke-linecap="round"/>
<path d="M12.3461 17.2622V12.7751C12.3461 11.6087 11.4005 10.6631 10.2341 10.6631H9.55536C8.38893 10.6631 7.44336 11.6087 7.44336 12.7751V17.2622" stroke="#342E34" stroke-width="1.2672"/>
</svg>
