<svg width="21" height="21" viewBox="0 0 21 21" fill="none" xmlns="http://www.w3.org/2000/svg">
<path d="M10.4431 19.8168C15.6783 19.8168 19.9223 15.5965 19.9223 10.3903C19.9223 5.18425 15.6783 0.963867 10.4431 0.963867C5.20786 0.963867 0.963867 5.18425 0.963867 10.3903C0.963867 15.5965 5.20786 19.8168 10.4431 19.8168Z" stroke="#342E34" stroke-width="1.33816" stroke-linecap="round" stroke-linejoin="round"/>
<path d="M1.69531 14.0179H4.24741C4.92427 14.0179 5.5734 13.7505 6.05202 13.2746C6.53063 12.7986 6.79951 12.1531 6.79951 11.48V9.30468C6.79951 8.63158 7.06839 7.98606 7.547 7.51011C8.02561 7.03416 8.67475 6.76678 9.35161 6.76678C10.0285 6.76678 10.6776 6.49939 11.1562 6.02345C11.6348 5.5475 11.9037 4.90197 11.9037 4.22888V1.06738" stroke="#342E34" stroke-width="1.33816" stroke-linecap="round" stroke-linejoin="round"/>
<path d="M19.9193 10.2422C19.1891 9.86544 18.3794 9.66662 17.5568 9.66211H14.4505C13.7737 9.66211 13.1245 9.92949 12.6459 10.4054C12.1673 10.8814 11.8984 11.5269 11.8984 12.2C11.8984 12.8731 12.1673 13.5186 12.6459 13.9946C13.1245 14.4705 13.7737 14.7379 14.4505 14.7379C14.934 14.7379 15.3977 14.9289 15.7395 15.2689C16.0814 15.6088 16.2735 16.0699 16.2735 16.5507V17.8124" stroke="#342E34" stroke-width="1.33816" stroke-linecap="round" stroke-linejoin="round"/>
<path d="M9.85354 19.2254C10.0135 18.8666 10.0382 18.432 9.85321 18.0469C9.66825 17.6618 9.46372 17.1116 9.04221 16.9257C8.6207 16.7398 8.15291 16.7041 7.74175 16.8263C7.3306 16.9485 7.00976 17.2187 6.84981 17.5774C6.73557 17.8336 6.5064 18.0266 6.21271 18.1139C5.91903 18.2012 5.5849 18.1757 5.28382 18.0429L4.4937 17.6945" stroke="#342E34" stroke-width="1.33816" stroke-linecap="round" stroke-linejoin="round"/>
</svg>
